<svg aria-hidden="true" style="position: absolute; width: 0; height: 0; overflow: hidden;" version="1.1" xmlns="http://www.w3.org/2000/svg" xmlns:xlink="http://www.w3.org/1999/xlink">
<defs>
<symbol id="icon-facebook" viewBox="0 0 32 32">
<path d="M32 16c0-8.8-7.2-16-16-16s-16 7.2-16 16c0 8 5.8 14.6 13.4 15.8v-11.2h-4v-4.6h4v-3.6c0-4 2.4-6.2 6-6.2 1.8 0 3.6 0.4 3.6 0.4v4h-2c-2 0-2.6 1.2-2.6 2.4v3h4.4l-0.8 4.6h-3.8v11.4c8-1.2 13.8-8 13.8-16z"></path>
</symbol>
<symbol id="icon-instagram" viewBox="0 0 32 32">
<path d="M16 3.636c4 0 4.545 0 6.182 0 1.455 0 2.182 0.364 2.727 0.545 0.727 0.364 1.273 0.545 1.818 1.091s0.909 1.091 1.091 1.818c0.182 0.545 0.364 1.273 0.545 2.727 0 1.636 0 2 0 6.182s0 4.545 0 6.182c0 1.455-0.364 2.182-0.545 2.727-0.364 0.727-0.545 1.273-1.091 1.818s-1.091 0.909-1.818 1.091c-0.545 0.182-1.273 0.364-2.727 0.545-1.636 0-2 0-6.182 0s-4.545 0-6.182 0c-1.455 0-2.182-0.364-2.727-0.545-0.727-0.364-1.273-0.545-1.818-1.091s-0.909-1.091-1.091-1.818c-0.182-0.545-0.364-1.273-0.545-2.727 0-1.636 0-2 0-6.182s0-4.545 0-6.182c0-1.455 0.364-2.182 0.545-2.727 0.364-0.727 0.545-1.273 1.091-1.818s1.091-0.909 1.818-1.091c0.545-0.182 1.273-0.364 2.727-0.545 1.636 0 2.182 0 6.182 0zM16 0.909c-4.182 0-4.545 0-6.182 0s-2.727 0.364-3.636 0.727c-0.909 0.364-1.818 0.909-2.727 1.818s-1.273 1.636-1.818 2.727c-0.364 0.909-0.545 2-0.727 3.636 0 1.636 0 2.182 0 6.182 0 4.182 0 4.545 0 6.182s0.364 2.727 0.727 3.636c0.364 0.909 0.909 1.818 1.818 2.727s1.636 1.273 2.727 1.818c0.909 0.364 2 0.545 3.636 0.727 1.636 0 2.182 0 6.182 0s4.545 0 6.182 0c1.636 0 2.727-0.364 3.636-0.727s1.818-0.909 2.727-1.818c0.909-0.909 1.273-1.636 1.818-2.727 0.364-0.909 0.545-2 0.727-3.636 0-1.636 0-2.182 0-6.182s0-4.545 0-6.182c0-1.636-0.364-2.727-0.727-3.636s-0.909-1.818-1.818-2.727c-0.909-0.909-1.636-1.273-2.727-1.818-0.909-0.364-2-0.545-3.636-0.727-1.636 0-2 0-6.182 0z"></path>
<path d="M16 8.182c-4.364 0-7.818 3.455-7.818 7.818s3.455 7.818 7.818 7.818c4.364 0 7.818-3.455 7.818-7.818s-3.455-7.818-7.818-7.818zM16 21.091c-2.727 0-5.091-2.182-5.091-5.091 0-2.727 2.182-5.091 5.091-5.091 2.727 0 5.091 2.182 5.091 5.091 0 2.727-2.364 5.091-5.091 5.091z"></path>
<path d="M24 9.818c1.004 0 1.818-0.814 1.818-1.818s-0.814-1.818-1.818-1.818c-1.004 0-1.818 0.814-1.818 1.818s0.814 1.818 1.818 1.818z"></path>
</symbol>
<symbol id="icon-signal" viewBox="0 0 32 32">
<path d="M12.159 0.467l0.359 1.455c-1.415 0.35-2.77 0.911-4.018 1.664l-0.768-1.286c1.374-0.832 2.867-1.45 4.428-1.832zM19.841 0.467l-0.359 1.455c1.415 0.35 2.77 0.911 4.018 1.664l0.777-1.286c-1.378-0.831-2.874-1.449-4.437-1.832zM2.299 7.727c-0.831 1.376-1.449 2.871-1.832 4.432l1.455 0.359c0.35-1.415 0.911-2.77 1.664-4.018l-1.286-0.773zM1.499 16c-0-0.727 0.055-1.454 0.164-2.173l-1.482-0.227c-0.241 1.59-0.241 3.206 0 4.796l1.482-0.223c-0.109-0.719-0.164-1.445-0.164-2.173zM24.269 29.696l-0.768-1.282c-1.246 0.754-2.6 1.315-4.014 1.664l0.359 1.455c1.558-0.386 3.050-1.005 4.423-1.836zM30.501 16c0 0.727-0.055 1.454-0.164 2.173l1.482 0.223c0.241-1.59 0.241-3.206 0-4.796l-1.482 0.227c0.109 0.719 0.164 1.445 0.164 2.173zM31.533 19.837l-1.455-0.359c-0.349 1.417-0.91 2.773-1.664 4.023l1.286 0.773c0.832-1.377 1.45-2.873 1.832-4.437zM18.173 30.337c-1.44 0.218-2.905 0.218-4.346 0l-0.223 1.482c1.588 0.241 3.203 0.241 4.791 0l-0.223-1.482zM27.674 24.601c-0.864 1.172-1.9 2.206-3.073 3.068l0.891 1.209c1.292-0.951 2.435-2.089 3.391-3.378l-1.209-0.9zM24.601 4.326c1.173 0.864 2.209 1.9 3.073 3.073l1.209-0.9c-0.953-1.289-2.093-2.429-3.382-3.382l-0.9 1.209zM4.326 7.399c0.864-1.173 1.9-2.209 3.073-3.073l-0.9-1.209c-1.289 0.953-2.429 2.093-3.382 3.382l1.209 0.9zM29.701 7.727l-1.286 0.773c0.754 1.246 1.315 2.6 1.664 4.014l1.455-0.359c-0.383-1.56-1.001-3.053-1.832-4.428zM13.827 1.663c1.44-0.218 2.905-0.218 4.346 0l0.223-1.482c-1.588-0.241-3.203-0.241-4.791 0l0.223 1.482zM5.095 29.278l-3.096 0.718 0.723-3.096-1.459-0.341-0.723 3.096c-0.045 0.192-0.052 0.391-0.020 0.585s0.102 0.381 0.205 0.549c0.104 0.168 0.24 0.313 0.4 0.428s0.341 0.197 0.533 0.242c0.225 0.050 0.457 0.050 0.682 0l3.096-0.714-0.341-1.468zM1.572 25.223l1.464 0.336 0.5-2.146c-0.73-1.225-1.274-2.552-1.614-3.937l-1.455 0.359c0.327 1.326 0.822 2.604 1.473 3.805l-0.368 1.582zM8.572 28.469l-2.146 0.5 0.341 1.464 1.577-0.368c1.2 0.653 2.478 1.148 3.805 1.473l0.359-1.455c-1.381-0.344-2.703-0.891-3.923-1.623l-0.014 0.009zM16 2.999c-7.182 0.005-12.996 5.828-12.996 13.005 0.004 2.445 0.696 4.839 1.996 6.91l-1.25 5.337 5.332-1.25c6.078 3.823 14.106 2 17.929-4.073s2.005-14.101-4.068-17.928c-2.079-1.307-4.485-2.001-6.941-2z"></path>
</symbol>
<symbol id="icon-telegram" viewBox="0 0 37 32">
<path d="M3.778 13.574c9.544-4.158 15.909-6.9 19.093-8.224 9.092-3.782 10.981-4.439 12.213-4.461 0.271-0.005 0.876 0.063 1.269 0.381 0.331 0.269 0.422 0.632 0.466 0.887s0.098 0.835 0.055 1.289c-0.493 5.177-2.625 17.74-3.709 23.538-0.459 2.453-1.363 3.276-2.237 3.357-1.901 0.175-3.345-1.257-5.186-2.464-2.882-1.889-4.509-3.065-7.306-4.908-3.232-2.13-1.137-3.301 0.705-5.214 0.482-0.501 8.859-8.12 9.021-8.812 0.020-0.086 0.039-0.409-0.152-0.579s-0.474-0.112-0.678-0.066c-0.289 0.066-4.892 3.108-13.81 9.128-1.307 0.897-2.49 1.334-3.55 1.312-1.169-0.025-3.418-0.661-5.089-1.204-2.050-0.666-3.68-1.019-3.538-2.151 0.074-0.59 0.886-1.193 2.436-1.809z"></path>
</symbol>
</defs>
</svg>
